<svg width="104" height="103" viewBox="0 0 104 103" fill="none" xmlns="http://www.w3.org/2000/svg">
<path fill-rule="evenodd" clip-rule="evenodd" d="M51.5147 102.901C65.2953 102.901 78.1742 97.6202 87.9614 87.833C97.6208 78.1736 103.029 65.1669 103.029 51.3863C103.029 37.7347 97.6202 24.7273 87.9614 15.0685C78.1742 5.2802 65.2953 0 51.5147 0C23.1814 0 0 23.053 0 51.3863C0 65.1669 5.40917 78.1736 15.1969 87.833C24.8557 97.6202 37.7347 102.901 51.5147 102.901ZM0.901627 51.3863C0.901627 37.8636 6.18183 25.2426 15.7122 15.5833C25.242 6.05286 37.992 0.772655 51.5147 0.772655C65.0373 0.772655 77.7867 6.05286 87.3177 15.5833C96.8475 25.2426 102.128 37.8636 102.128 51.3863C102.128 79.3326 79.461 102.128 51.5147 102.128C37.992 102.128 25.242 96.8475 15.7122 87.3177C6.18183 77.6583 0.901627 65.0373 0.901627 51.3863Z" fill="black"/>
<path fill-rule="evenodd" clip-rule="evenodd" d="M5.92383 50.613C6.0528 50.3557 6.0528 50.0983 6.0528 49.8404V49.0677L8.88607 49.1967C9.53034 49.1967 10.303 49.3257 10.8177 49.1967C11.333 49.1967 11.7193 49.0677 12.1057 48.6814C12.363 48.424 12.492 48.0377 12.621 47.6514C12.621 46.6214 12.2346 46.1061 11.462 45.7197C10.9467 45.4624 9.78769 45.4624 9.27239 45.4624L6.18177 45.3334C6.31074 45.205 6.31074 44.9471 6.31074 44.8187V44.4324L9.91666 44.6897C11.0756 44.6897 12.1057 44.8187 12.7499 45.8487C13.1363 46.493 13.2646 47.1367 13.2646 47.7803C13.1357 49.0683 12.7499 50.3563 11.333 50.7426H10.1734L5.92383 50.613ZM6.82546 41.2122L7.08281 40.1816C8.88607 39.1516 10.8177 38.121 12.7499 37.2194L8.11341 35.9314C8.24238 35.8024 8.24238 35.674 8.37077 35.5451V35.1587L15.1963 36.9614L14.9389 37.7341C13.3936 38.6357 11.8483 39.2794 10.4314 40.181L9.01445 40.9537L13.7794 42.1126C13.6504 42.2416 13.6504 42.37 13.6504 42.499C13.5214 42.6279 13.5214 42.8853 13.5214 43.0143L6.82546 41.2122ZM9.53034 32.3255C9.65931 32.0681 9.78769 31.9392 9.91666 31.6818C10.045 31.4244 10.045 31.1665 10.174 30.9091L16.6132 33.7424C16.4842 33.9998 16.3559 34.1287 16.2269 34.3867C16.0979 34.6446 16.0979 34.902 15.9695 35.1593L9.53034 32.3255ZM18.6738 29.7496C18.6738 29.8785 18.5448 30.0069 18.5448 30.1359C16.0979 29.6206 13.651 29.2343 11.0751 28.719C11.3324 28.4616 11.4614 28.3326 11.5904 28.0747C11.8477 27.8173 11.9767 27.5594 12.1051 27.302C13.7794 27.6884 15.5826 27.9463 17.2569 28.3326C16.2263 26.9157 15.1963 25.4994 14.0373 24.0825C14.1663 23.9535 14.2947 23.8251 14.2947 23.6961C14.4236 23.5672 14.4236 23.4388 14.552 23.3098C15.9684 25.3704 17.3853 27.431 18.9306 29.3627C18.9318 29.4922 18.8028 29.6212 18.6738 29.7496ZM18.5454 18.5455C18.6744 18.6745 18.6744 18.8028 18.8028 18.9318C18.9312 19.0608 19.0601 19.0608 19.1891 19.1892C18.6744 19.5755 18.1591 20.0908 17.5154 20.8634L19.1891 22.2804L19.8334 21.5077C20.2197 21.1214 20.4777 20.864 20.606 20.4777L20.9924 20.864C20.9924 20.864 21.2497 20.993 21.2497 21.1214C20.9924 21.2504 20.735 21.6367 20.4771 21.894L19.7044 22.7957L21.6361 24.4694C22.4087 23.6967 22.795 23.053 23.053 22.5377L23.4393 22.9241C23.5683 23.053 23.6967 23.053 23.8256 23.1814L21.2497 26.0147L15.9695 21.5071L18.5454 18.5455ZM20.3481 16.8712L21.8934 15.4543C22.2797 15.1969 22.9234 14.6816 23.3103 14.5526C23.9546 14.4237 24.4693 14.5526 24.9846 15.0679C25.6283 15.8406 25.4993 16.7422 24.9846 17.5149C26.0146 17.9012 27.0452 18.1586 28.2042 18.5449L28.8485 18.8023C28.5911 18.9312 28.3332 19.0596 28.0758 19.3176L27.4316 19.9618L25.113 19.0602C24.8556 18.9312 24.3404 18.8028 23.954 18.6739H23.8251L26.014 21.2498C25.7567 21.3787 25.4987 21.5071 25.3698 21.6361C25.1124 21.7651 24.9834 22.0224 24.8551 22.1514L20.3481 16.8712ZM23.5683 18.4165C24.4699 17.7728 24.5983 17.0002 23.8256 16.2275C23.8256 16.0985 23.6967 15.9702 23.4393 15.8412C22.795 15.3259 22.2797 15.8412 21.765 16.2275L23.5683 18.4165ZM29.6211 11.7194C29.1058 11.3331 28.5905 11.2041 28.2042 11.462C27.4316 11.9773 27.4316 12.492 27.6895 13.0073C28.4622 14.1663 30.9091 12.2347 32.1971 14.2953C32.8413 15.4543 32.326 16.7422 31.0375 17.6439C30.5228 17.9012 30.0075 18.1586 29.3638 18.0302L28.9775 16.8712L29.1064 16.7422C29.6217 17.2569 30.2654 17.2569 30.9097 16.9996C31.4244 16.6133 31.8113 15.969 31.4244 15.4537C30.5228 14.0368 28.2048 16.098 26.9174 14.0368C26.4021 13.0067 26.5311 11.7188 27.8191 10.9461C28.4627 10.5598 29.236 10.4308 29.4933 10.5598C29.6223 10.9461 29.6223 11.2035 29.7507 11.5898L29.6211 11.7194ZM31.6812 9.14347L32.4538 8.75714C32.7112 8.75714 32.9691 8.62817 33.0981 8.49979L36.0603 14.8106C35.803 14.9396 35.545 14.9396 35.2877 15.0679C35.0303 15.1963 34.9013 15.3253 34.6434 15.4543L31.6812 9.14347ZM40.5679 13.1363C40.3105 13.2653 40.0532 13.2653 39.7952 13.3937C39.5379 13.3937 39.4089 13.5226 39.1515 13.651L37.2193 7.59816C36.5756 7.85552 35.9319 8.11287 35.5456 8.37081C35.4166 8.24184 35.4166 8.11346 35.4166 7.8561C35.4166 7.72713 35.2877 7.59874 35.2877 7.46977L40.3099 5.92446V6.43917C40.4389 6.56815 40.4389 6.69653 40.5673 6.8255C39.9236 6.95447 39.2793 6.95447 38.7646 7.21183L40.5679 13.1363ZM44.6891 9.27244C43.7875 8.11346 42.8858 6.8255 41.9848 5.53755H42.8864C43.1438 5.40858 43.4011 5.40858 43.7881 5.28019C44.0454 5.79549 44.5607 6.43917 44.8187 6.95447C45.205 7.46977 45.5913 7.98507 45.7203 8.11346C45.9776 7.59874 46.4929 5.79549 46.7503 4.89386H47.2656C47.3946 4.76489 47.5229 4.76489 47.7809 4.76489C47.1673 6.11544 46.6088 7.49031 46.1066 8.88611L46.6213 11.9767H45.8487C45.5913 12.1051 45.3334 12.1051 45.076 12.2341L44.6891 9.27244ZM56.2795 12.2347C54.0905 11.8483 52.802 10.303 53.0599 8.11346C53.3173 6.05285 55.1211 4.63651 57.5675 5.02283C60.4013 5.40916 61.045 7.46977 60.7871 9.14406C60.5297 11.0757 58.8554 12.492 56.2795 12.2347ZM54.7348 8.62876C54.6052 9.91671 54.9921 11.3331 56.4085 11.591C57.9544 11.8484 58.9838 10.303 59.1128 8.62876C59.3701 7.3408 58.9832 5.79549 57.4391 5.53813C56.0216 5.40916 54.9927 6.3102 54.7348 8.62876ZM62.9766 13.5226C62.738 13.5177 62.5092 13.4262 62.333 13.2653C62.0756 13.2653 61.8177 13.1363 61.5603 13.1363L63.7493 6.43917L67.4842 7.72713C67.3546 7.8561 67.2268 7.98449 67.2268 8.11346C67.2268 8.24243 67.2268 8.37081 67.0985 8.49979C66.5832 8.24243 65.9383 7.98507 64.9083 7.59816L64.2646 9.65877L65.2952 10.0451C65.6809 10.1741 66.0679 10.3025 66.4542 10.3025C66.4542 10.4314 66.3258 10.6888 66.3258 10.8178C66.1962 10.9467 66.1962 11.0751 66.1962 11.2041C65.8105 11.0751 65.4236 10.8178 65.0373 10.6894L64.0067 10.432L62.9766 13.5226ZM71.3475 14.9396C70.7038 15.4543 70.1885 15.9696 69.6738 16.3565C69.5454 16.3565 69.4164 16.2275 69.288 16.0991C69.1585 15.9702 69.0307 15.9702 68.9011 15.8418L75.0829 11.4632C75.2125 11.5922 75.3403 11.7206 75.4699 11.7206C75.4699 11.8495 75.5982 11.8495 75.7272 11.8495L74.3097 19.4477C74.0524 19.1903 73.924 19.0614 73.666 18.9324C73.4087 18.675 73.1507 18.5461 72.8934 18.4171C73.0229 17.6444 73.2791 17.0008 73.4087 16.2281L71.3475 14.9396ZM73.5365 15.5832L74.0518 13.1363L71.9917 14.6816L73.5365 15.5832ZM76.8856 20.6061C77.5293 21.2498 78.1736 21.6361 78.6889 22.023L78.302 22.4093C78.302 22.5383 78.1736 22.6667 78.1736 22.6667L75.2113 20.2198L79.8473 14.9396C79.9757 15.1969 80.233 15.3259 80.3626 15.5832C80.6199 15.7122 80.7483 15.8406 81.0063 15.9696L76.8856 20.6061ZM84.4838 19.3181L86.1575 21.3787C86.8023 22.1514 87.1881 23.182 86.287 23.9547C85.5144 24.4694 84.6134 24.212 83.9685 23.6973H83.8401C84.3554 24.341 84.7411 25.3716 83.7106 26.2732C82.68 27.1748 81.3932 26.5306 80.6205 25.6295L79.0746 23.8263L84.4838 19.3181ZM83.1958 22.4088C83.4532 22.7951 83.5828 23.053 84.0981 23.1814C84.4838 23.3104 84.8707 23.053 85.1286 22.7951C85.7723 22.4088 85.7723 21.7645 85.3854 21.2492L84.9997 20.8629L83.1958 22.4088ZM80.6205 24.5983L80.8779 24.9847C81.2636 25.371 82.0368 25.6289 82.6799 24.9847C83.5822 24.3404 83.4526 23.5677 82.6799 22.7957L80.6205 24.5983ZM91.0525 28.5906C90.923 28.7196 90.7952 28.7196 90.6656 28.8479C90.5372 28.8479 90.4083 28.9769 90.2799 29.1053C90.0225 28.461 89.7646 27.8173 89.2493 27.0447L87.3176 28.0747L87.8329 28.9763C88.0903 29.3627 88.3482 29.749 88.6044 30.0063C88.476 30.1353 88.3477 30.1353 88.2187 30.2637C88.0903 30.2637 87.9613 30.3927 87.8329 30.5211C87.7034 30.1347 87.446 29.7484 87.3176 29.3621L86.6728 28.4604L84.4838 29.7484C84.9991 30.65 85.3848 31.2937 85.7717 31.68C85.6422 31.809 85.5144 31.809 85.3848 31.9374C85.2565 31.9374 85.1281 32.0664 84.9991 32.1948L83.0675 28.8468L88.9913 25.2409L91.0525 28.5906ZM92.082 30.9086L92.9842 32.8402C93.1126 33.3549 93.3699 33.9992 93.3699 34.5145C93.2415 35.1587 92.9842 35.5445 92.3393 35.8024C91.4383 36.1888 90.5372 35.8024 90.0219 35.0298C89.3771 35.9314 88.734 36.8324 88.0903 37.7341L87.575 38.3778C87.575 38.1204 87.4454 37.863 87.3176 37.4761C87.1881 37.2188 87.0603 36.9608 86.9307 36.7035L88.4766 34.7718C88.734 34.5145 88.9919 34.1276 89.2493 33.7412V33.6123L86.1581 34.9002C86.1581 34.6429 86.0297 34.3849 86.0297 34.1276C85.9001 33.8702 85.7723 33.7412 85.6428 33.4833L92.082 30.9086ZM89.635 33.4845C90.0219 34.5151 90.6656 34.7724 91.5667 34.3861C91.6962 34.3861 91.824 34.2571 92.082 34.2571C92.7268 33.7418 92.4689 33.0981 92.2115 32.4539L89.635 33.4845ZM88.4766 42.2422C88.4766 41.9848 88.4766 41.7269 88.3482 41.4695C88.3482 41.2122 88.2187 40.9548 88.2187 40.8259L94.2721 39.4089C94.1426 38.7653 93.8852 38.1216 93.7568 37.6063H94.1426C94.2721 37.4773 94.3999 37.4773 94.5283 37.3489L95.6885 42.5002C95.5589 42.5002 95.4311 42.5002 95.3016 42.6291C95.1732 42.6291 95.0442 42.6291 94.9158 42.7581C94.7863 42.1144 94.7863 41.4701 94.6585 40.9554L88.4766 42.2422ZM91.1809 46.1055C90.4083 45.9765 89.7646 45.7192 89.1197 45.5902V45.0755C89.1197 44.9471 89.1197 44.6891 88.9913 44.5602L96.2038 47.1361V47.5224C96.2038 47.6514 96.2038 47.7798 96.3322 47.9087L89.3777 51.1283V50.2267C89.3777 49.9693 89.2493 49.5824 89.2493 49.3251C90.0219 49.0677 90.6656 48.8098 91.3105 48.5524L91.1809 46.1055ZM91.9536 48.2951L94.2721 47.265L91.824 46.3634L91.9536 48.2951ZM11.2046 55.8932C11.3336 55.5075 11.2046 55.2496 11.0756 54.8626V54.7343L13.3936 56.408C13.7799 56.5375 14.0379 56.7949 14.4242 56.5375C14.5532 56.4079 14.6816 56.408 14.8105 56.2802C14.9389 56.9238 14.9389 57.5669 15.1969 58.3402C15.3258 58.5975 15.4542 58.5975 15.7122 58.4697L17.7728 57.6971L18.0301 58.3408L15.9695 59.1134C15.7122 59.1134 15.5832 59.3708 15.5832 59.5003C15.7122 59.8861 15.8406 60.0156 15.9695 60.273C16.2269 60.6587 16.4848 60.9167 16.7422 61.3024C16.4848 61.3024 16.2269 61.432 15.9695 61.432C15.8411 61.5604 15.8411 61.6893 15.7122 61.8177L15.4548 62.7199L14.8111 64.9089C14.6822 64.6516 14.5538 64.2641 14.2958 64.0067C14.0571 64.012 13.8283 64.1034 13.6516 64.2641L12.8789 65.0367C12.8789 64.5214 12.8789 63.8777 12.6215 63.2335C12.3642 63.2335 12.2352 63.363 11.9773 63.363L11.5909 63.6204C11.5909 63.4908 11.5909 63.4908 11.7199 63.4908C12.1062 62.8471 12.4926 62.3318 12.8789 61.5592V61.1734H12.6215C12.3642 61.1734 12.2352 61.3018 12.1062 61.4308L9.65931 63.1045C9.78828 62.7188 10.0456 62.3318 9.78828 61.9455C9.65931 61.816 9.40195 61.6882 9.14401 61.6882H7.85605C8.32495 61.4506 8.72426 61.0955 9.01504 60.6576C9.14401 60.528 9.27239 60.4002 9.14401 60.2718C9.01504 59.8849 8.6293 59.7565 8.37135 59.4992L11.3336 59.2418C11.5909 59.2418 11.9773 59.2418 11.9773 58.8549C11.9773 58.5975 11.7199 58.5975 11.4626 58.4691C10.8183 58.2118 10.1746 58.0822 9.53092 57.9538C9.78828 57.8243 10.1746 57.6965 10.4325 57.4385C10.4325 57.4385 10.5615 57.4385 10.5615 57.309C10.3042 56.7949 9.91784 56.4079 9.53151 56.0222C10.045 56.0228 11.0756 56.0228 11.2046 55.8932ZM93.2421 55.5075C93.1126 55.1206 93.2421 54.8626 93.2421 54.4769H93.3705L90.9236 55.8932C90.6662 56.1506 90.2799 56.4085 90.0225 56.1506C89.7652 56.0222 89.6356 56.0222 89.5072 55.8932C89.3777 56.5381 89.3777 57.1812 89.2499 57.9544C89.1203 58.2118 88.863 58.2118 88.605 58.0828L86.545 57.3102L86.4154 57.8255L88.4766 58.7277C88.605 58.7277 88.8624 58.8561 88.734 59.1134C88.6044 59.5003 88.6044 59.6287 88.3482 59.8861C88.0909 60.273 87.8329 60.5298 87.5756 60.9167C87.8329 60.9167 88.0909 61.0451 88.3482 61.0451C88.4766 61.1746 88.605 61.3024 88.605 61.432L88.8624 62.333L89.5072 64.522C89.6356 64.2647 89.7646 63.8783 90.1509 63.621C90.2805 63.621 90.5378 63.7493 90.6662 63.8783C91.0531 64.1357 91.3111 64.3936 91.4389 64.651C91.5673 64.1357 91.5673 63.4908 91.6962 62.8477C91.9536 62.8477 92.2115 62.9773 92.3399 62.9773L92.7268 63.2341V63.1057C92.3399 62.462 91.8246 61.9467 91.5667 61.174C91.4383 61.0445 91.4383 60.9167 91.4383 60.7871H91.6956C91.953 60.7871 92.0814 60.9167 92.3393 61.0445L94.6579 62.7193C94.6579 62.462 94.4005 61.9467 94.5283 61.5592C94.6579 61.4308 94.9152 61.4308 95.1732 61.3018C95.5589 61.3018 96.0742 61.3018 96.4611 61.4314C96.0742 61.0445 95.5589 60.6587 95.301 60.2724C95.1726 60.1428 95.1726 60.015 95.1726 59.8855C95.301 59.4997 95.6879 59.3702 96.0736 59.1128L93.1114 58.8555C92.854 58.8555 92.4677 58.8555 92.3387 58.4697C92.3387 58.2124 92.7257 58.2124 92.854 58.0828C93.4989 57.8255 94.2715 57.6971 94.9152 57.5675C94.5283 57.4391 94.1426 57.3102 93.8846 57.1818V56.9244C94.0142 56.4091 94.5283 56.0234 94.9152 55.6365C94.2721 55.6359 93.2421 55.6359 93.2421 55.5075ZM58.5682 90.1697V90.1855L57.5493 90.3837L58.125 93.0792C58.5852 94.3455 59.4393 94.509 60.4758 94.2792C61.5281 94.0664 62.2345 93.5236 62.1518 92.2409L61.5931 89.5442L60.6393 89.7424L61.1992 92.4214C61.1658 93.0135 60.9518 93.2598 60.328 93.3752C59.6697 93.523 59.325 93.2433 59.128 92.8488L58.5682 90.1697ZM56.4812 94.033C56.7596 93.5203 56.8359 92.9219 56.6952 92.3558C56.635 92.054 56.5117 91.7683 56.3335 91.5175C56.2489 91.4008 56.1554 91.2908 56.0538 91.1886C55.5274 90.7126 54.7876 90.5156 53.9985 90.695C52.7334 90.9746 51.9766 92.0931 52.2732 93.3582C52.5687 94.6409 53.7353 95.4294 55.0015 95.1339C55.3955 95.0513 55.7079 94.8877 55.9712 94.6403L56.7268 95.2483L57.8776 94.9862L56.4812 94.033ZM55.3955 91.912C55.4781 92.0105 55.5602 92.1248 55.6259 92.2409C55.6921 92.3728 55.7414 92.5041 55.7748 92.6518C55.8398 92.9643 55.8398 93.2598 55.7414 93.523L55.4617 93.326L54.5413 93.5388L55.2319 94.0652C55.1011 94.1464 54.9561 94.2019 54.8046 94.2288C54.0319 94.4099 53.4064 93.9984 53.2428 93.2258C53.0617 92.4543 53.4064 91.7144 54.1796 91.5333C54.6732 91.419 55.1 91.5837 55.3955 91.912ZM22.4023 81.375C22.9813 81.3059 23.5142 81.0248 23.8983 80.586C24.1123 80.3386 24.2765 80.0765 24.3749 79.7957H24.3585C24.4078 79.665 24.4406 79.5161 24.457 79.3848H24.4734C24.5555 78.6784 24.2923 77.955 23.6844 77.4133C22.7147 76.558 21.3664 76.5914 20.5117 77.561C19.6405 78.5471 19.6733 79.961 20.6436 80.8322C20.9242 81.0696 21.2561 81.2385 21.6132 81.3258L21.5475 82.2954L22.4351 83.0681L22.4023 81.375ZM23.5038 79.2546C23.471 79.3854 23.4217 79.5167 23.3725 79.6486C23.3021 79.7767 23.2196 79.8978 23.1263 80.0103C22.8959 80.2565 22.6497 80.4212 22.3864 80.4705L22.4028 80.1416L21.68 79.5167L21.6472 80.3878C21.5074 80.3217 21.3796 80.2327 21.2691 80.1246C20.677 79.5993 20.6447 78.8595 21.1706 78.2844C21.6964 77.6753 22.5189 77.5276 23.1104 78.054C23.4716 78.3829 23.5865 78.8261 23.5038 79.2546ZM38.8912 92.6852L39.1545 91.9284C38.8092 92.0111 38.2997 91.8633 37.9052 91.6822C37.1654 91.3363 36.7544 90.7126 37.0176 89.9393C37.2803 89.1503 38.0043 88.7235 38.7763 88.9855C39.1216 89.101 39.7296 89.3472 39.9764 89.6104L40.2226 88.9363C39.9922 88.6566 39.3514 88.3284 38.9077 88.1806C37.6912 87.7697 36.4912 88.3284 36.0803 89.5442C35.6693 90.7612 36.2778 91.9771 37.4778 92.4549C37.9374 92.6518 38.5295 92.7661 38.8912 92.6852ZM48.7218 92.4713L46.8969 90.4822C46.8476 90.4488 46.7163 90.4159 46.6835 90.4822L46.0257 94.6409L47.1108 94.7236L47.3412 92.208L47.3084 91.9777H47.4069L47.4561 92.208L48.6397 93.622L50.0203 92.4379L50.1352 92.2251L50.2173 92.2573L50.1352 92.5047L50.0367 94.954L51.0063 95.0366L51.1048 90.8116C51.0524 90.7914 50.9969 90.7801 50.9407 90.7782L48.7218 92.4713ZM66.6564 92.1916L66.4102 91.5175L64.8151 92.0931L64.471 91.1235L66.0327 90.5648L65.8023 89.8731L64.2236 90.4329L63.8789 89.4791L65.4734 88.9035L65.2266 88.2129L62.6296 89.1508L64.0594 93.1284L66.6564 92.1916ZM42.4092 89.4791V89.495L41.4068 89.2646L40.7983 91.9448C40.6834 93.2762 41.3904 93.7862 42.4256 94.016C43.4615 94.2622 44.3491 94.0652 44.8093 92.8652L45.4178 90.185L44.4646 89.9722L43.8561 92.6354C43.5928 93.1449 43.2804 93.2768 42.6725 93.1449C42.0147 92.9801 41.8177 92.585 41.8013 92.1418L42.4092 89.4791ZM27.9592 87.2432L30.5732 85.4511L30.6547 85.3034L30.7045 85.3368L30.6054 85.4845L29.9975 88.5916L30.8686 89.1667L31.7234 84.6462L30.9015 84.1034L27.071 86.6511L27.9592 87.2432ZM34.2881 91.0074L34.617 90.3667L33.0881 89.5934L33.5483 88.6901L35.0444 89.4299L35.3733 88.7886L33.8772 88.0329L34.3374 87.1125L35.8663 87.884L36.1787 87.2268L33.7295 85.994L31.8224 89.7746L34.2881 91.0074ZM26.7591 80.8656L25.9701 80.1914L24.178 82.296C23.471 83.4298 23.8655 84.2024 24.671 84.893C25.4929 85.5836 26.3476 85.8134 27.3178 84.9757L29.1099 82.8711L28.3701 82.2474L26.5944 84.3185C26.1014 84.6474 25.7725 84.6298 25.2959 84.22C24.7865 83.7757 24.8029 83.3313 24.9834 82.9374L26.7591 80.8656ZM70.8656 87.9332L70.6024 85.5332L71.5896 84.9903L71.8692 89.5612C71.885 89.7248 71.6218 89.8408 71.5075 89.7582L67.8412 87.0123L68.8273 86.487L70.6698 87.9995L70.916 88.4104L71.0796 88.3119L70.8656 87.9332ZM82.0439 81.7197L80.6961 78.958L80.498 78.7769L80.5648 78.6948L80.7776 78.8595L83.6707 79.8954L84.3789 79.1057L80.022 77.6103L79.3648 78.3337L81.3375 82.5082L82.0439 81.7197ZM77.0298 86.3891L76.6031 85.797L75.2383 86.8L74.6304 85.9776L75.9775 84.9909L75.5508 84.3988L74.2018 85.3861L73.5939 84.5636L74.9745 83.5605L74.5477 82.969L72.3118 84.597L74.8109 88.0159L77.0298 86.3891ZM76.8651 80.7495C77.5234 80.175 78.2949 80.2735 78.7235 80.7665C79.0189 81.1112 79.0682 81.538 78.8554 82.0316C79.3156 81.8997 79.7588 82.2128 81.0414 82.7714L80.1539 83.5283C79.2159 83.1496 78.5429 82.6395 78.1144 83.0177L77.884 83.2158L79.0189 84.5143L78.214 85.2207L75.4189 81.9988L76.8651 80.7495ZM77.3745 82.6243L77.8025 82.2626C78.0153 82.0656 78.1472 81.7866 77.9168 81.5069C77.704 81.2596 77.4408 81.2766 77.1441 81.5392L76.7332 81.8851L77.3745 82.6243Z" fill="black"/>
<path fill-rule="evenodd" clip-rule="evenodd" d="M70.9969 74.6838C70.5859 74.0108 70.4875 73.2376 70.7003 72.3822C70.7987 71.9713 71.062 71.5932 71.5714 71.0837C72.2456 70.4096 73.7252 69.5554 76.1088 68.4697C76.7326 68.1901 77.3915 67.7791 78.0815 67.3682C78.4432 67.1542 78.8864 66.7603 79.0512 66.1523C79.0512 66.1523 79.2147 65.4448 79.2323 65.0174C79.2481 64.5238 79.8244 63.9159 80.4165 64.4095L87.1717 69.9171C87.2543 69.9822 87.3206 70.0807 87.3698 70.1792C87.402 70.2947 87.7808 71.3469 87.0239 72.7281C86.5479 73.5993 85.8239 74.2072 85.2494 74.6187C86.6622 75.9823 87.8792 77.1665 87.8792 77.1665C88.1255 77.3969 88.2902 77.7252 88.3394 78.071C88.3887 78.482 88.1917 78.7775 88.109 78.9094C80.267 90.7132 66.6236 97.8312 51.5973 97.9461C40.1557 98.0446 24.5713 93.0481 15.1681 78.7458C15.0204 78.4984 14.9377 78.2686 14.9377 78.0048C14.9377 77.595 15.3985 77.0188 15.3985 77.0188L18.0284 74.454C17.4533 74.06 16.6806 73.4351 16.2533 72.5141C16.0721 72.1032 15.4806 70.3281 16.2697 69.6539L22.9439 64.2782C23.2072 64.0642 23.5853 64.0812 23.8151 64.3116C23.8151 64.3116 24.1275 64.7225 24.1111 64.8861C24.0619 65.6429 24.3902 66.7274 25.2455 67.2369C25.9191 67.632 26.5932 68.0588 27.2182 68.3554C29.6018 69.4569 31.0814 70.3111 31.7386 70.9852C32.2486 71.4947 32.5113 71.8898 32.6097 72.2838C32.8237 73.1391 32.7252 73.7628 32.3143 74.4376C32.1994 74.6504 31.9526 74.9312 31.8213 75.0947L28.9939 78.2674C35.8164 84.2681 44.0032 87.8031 51.6143 87.8031C59.2417 87.8524 67.4443 84.3496 74.2997 78.3835L71.4887 75.1938C71.2924 75.0613 71.1118 74.8978 70.9969 74.6838ZM21.9749 72.4977L16.2708 78.0042L16.2873 78.0212C25.395 91.8628 40.5022 96.7121 51.5984 96.6294C66.164 96.5151 79.414 89.6105 87.0087 78.1848L81.3375 72.6455C76.4541 79.9611 64.4041 88.9205 51.6148 89.1174C40.239 89.2822 27.8108 81.2103 21.9749 72.4977ZM80.9916 70.4588C80.9916 70.4588 82.6184 72.054 84.2962 73.6649C84.7722 73.3525 85.4628 72.8266 85.8737 72.1032C86.2026 71.4794 86.1862 71.0187 86.1534 70.8047L80.4171 66.1195C80.4001 66.1846 80.3837 66.2672 80.3667 66.3499L80.3344 66.4818C80.1204 67.3037 79.5618 68.0101 78.7727 68.4867C78.0493 68.9311 77.3429 69.3579 76.6681 69.6709C73.9222 70.9202 72.8875 71.6436 72.5094 72.0217C72.1307 72.3998 72.0158 72.5974 71.9829 72.7123C71.851 73.2217 71.9003 73.6327 72.1307 74.012C72.1799 74.1105 72.2954 74.2424 72.6401 74.2582C73.4128 74.3233 75.3368 73.1074 75.9125 72.2855C76.2413 71.8253 76.997 70.9049 78.1144 70.3949C78.8378 70.0479 80.2852 69.7852 80.9916 70.4588ZM73.3477 75.5215L75.189 77.5939C76.8857 76.0321 78.4626 74.3451 79.9065 72.547C80.2359 72.136 80.2359 71.5932 80.0384 71.3792C79.8572 71.2807 79.1842 71.347 78.6748 71.5773C77.8529 71.9713 77.4085 72.5141 76.9483 73.1056L76.7344 73.3689C75.8298 74.5026 74.5143 75.2917 73.3477 75.5215ZM22.3366 70.3111C22.9943 69.6697 24.161 69.7032 24.95 70.0479C26.068 70.5415 27.0212 71.4126 27.6625 72.4983C28.2869 73.5998 29.5039 74.1908 30.375 74.2078C30.6054 74.2078 31.0164 74.1744 31.1805 73.9111C31.4109 73.533 31.4437 73.1221 31.3282 72.5968C31.2954 72.4983 31.1969 72.3002 30.8024 71.9226C30.4243 71.5445 29.4054 70.8211 26.6601 69.556C25.9859 69.2271 25.2461 68.7834 24.5561 68.3718C23.767 67.8782 22.9615 66.5639 22.9287 65.9718C21.2849 67.3031 17.7833 70.1475 17.1912 70.6077C17.1584 70.8539 17.2569 71.4953 17.4544 71.9555C17.7997 72.6953 18.5231 73.2206 19.0162 73.5172L22.3366 70.3111ZM29.8826 75.4899C28.7318 75.3087 27.3178 74.5695 26.5123 73.1555C26.2327 72.6619 25.5749 71.7585 24.4242 71.2649C23.9311 71.0509 23.4217 71.1001 23.2898 71.2315C23.0758 71.4454 23.0758 72.0041 23.4047 72.4157C24.8515 74.2406 26.4297 75.9331 28.1063 77.479L29.8826 75.4899Z" fill="black"/>
<path fill-rule="evenodd" clip-rule="evenodd" d="M51.6642 23.114C38.7594 23.114 29.5532 27.536 29.5532 27.536V51.8166C29.5532 56.4848 30.5727 60.9571 32.611 65.1487C35.9977 72.5294 43.8063 80.3714 51.7298 82.2286C59.6534 80.3714 67.4784 72.5294 70.8651 65.1487C72.9034 60.9571 73.9223 56.4848 73.9223 51.8166V27.5366C73.9229 27.5366 64.5689 23.114 51.6642 23.114ZM37.2798 70.0649C36.9967 69.6879 36.7226 69.3042 36.4579 68.9141L37.2798 68.0922V70.0649ZM35.6196 65.9049L35.636 65.9219V65.9049L37.2798 64.2617V66.9238L35.9977 68.2065C35.2414 67.0235 34.5837 65.8399 34.0414 64.6557V64.6399C33.6533 63.8624 33.3024 63.067 32.9897 62.2562L35.439 60.2179L37.9704 62.3383L35.6196 64.7383L33.9095 63.0289V64.1955L35.6196 65.9049ZM41.1102 74.4534L42.7212 72.8424V75.8182L43.4118 76.4753C42.6135 75.8376 41.8455 75.1629 41.1102 74.4534ZM41.061 64.7383L39.3509 63.0289V64.1955L41.061 65.9049L42.7212 64.2617V67.4667L41.0938 69.0946L39.3844 67.3852V68.5518L41.0938 70.2612L41.1102 70.2771V70.2612L42.7212 68.6344V71.6758L41.0938 73.2868L39.3844 71.5773V72.6455C38.9734 72.1853 38.5625 71.7251 38.1843 71.2485V62.4696L40.8968 60.2173L43.4288 62.3207L41.061 64.7383ZM46.2884 78.4814L44.7924 76.9689V77.4942C44.3926 77.2244 44.0033 76.9395 43.6252 76.6401V62.4855L46.3541 60.2173L48.8696 62.3207L46.5024 64.7378L44.7924 63.0283V64.1949L46.5024 65.9044L48.1626 64.2612V67.7451L46.5188 69.3895L44.8094 67.6801V68.8467L46.5188 70.5573V70.5743V70.5585L48.1626 68.9141V72.3981L46.5188 74.0425L44.8094 72.333V73.4996L46.5188 75.2102L48.1626 73.5658V77.034L46.5516 78.645C46.4532 78.5963 46.3711 78.5307 46.2884 78.4814ZM51.9432 65.9049L53.5876 64.2617V67.8946L51.9432 69.5548L50.2174 67.8454V69.0284L51.9432 70.7379V70.7549V70.7214L53.5876 69.0771V72.7275L51.9432 74.3877L50.2174 72.6783V73.8449L51.9432 75.5714V75.5543L53.5876 73.8941V77.5434L51.9432 79.2048L50.2174 77.4942V78.6784L51.9432 80.3878V80.372L53.5876 78.7276V80.2243C52.9817 80.4558 52.3613 80.6477 51.7304 80.7988C50.2344 80.4371 48.7547 79.8292 47.3085 79.0559L48.1632 78.2018V78.7446L49.0672 79.6158V62.4855L51.7961 60.2173L54.2952 62.3207L51.9432 64.7378L50.2174 63.0283V64.1949L51.9432 65.9049ZM57.319 65.9049L57.336 65.9219V65.9049L58.9792 64.2617V67.7299L57.319 69.3901L55.6095 67.6806V68.8473L57.319 70.5579L57.336 70.5737V70.5579L58.9792 68.8965V72.3816L57.319 74.0419L55.6095 72.333V73.4996L57.319 75.2102L57.336 75.2261V75.2102L58.9792 73.55V77.0516L58.1573 77.8565C57.8284 78.0869 57.4843 78.3009 57.1554 78.4978L55.626 76.9695V78.1537L56.3986 78.9252C55.7749 79.2711 55.1493 79.5994 54.4922 79.879V62.4866L57.1877 60.2185L59.7032 62.3061L57.3196 64.7389L55.6101 63.0295V64.1961L57.319 65.9049ZM62.7123 65.9049L64.3556 64.2617V67.4344L62.7123 69.0946L60.9859 67.3852V68.5518L62.7123 70.2612L64.3556 68.601V71.626L62.7123 73.2862L60.9859 71.5768V72.7598L62.5142 74.2893C61.6759 75.1112 60.8047 75.9002 59.8843 76.6066V62.4696L59.9178 62.4855L62.6461 60.2173L65.1124 62.2715L62.7123 64.7378L60.9859 63.0283V64.1949L62.7123 65.9049ZM69.4353 64.6557C68.8868 65.8304 68.2607 66.9673 67.5611 68.0588L66.3276 66.8095V67.9937L67.1003 68.7664C66.5171 69.6173 65.9085 70.4505 65.2754 71.2649V62.404L65.358 62.4866L68.0863 60.2185L70.4876 62.2076L70.4383 62.3553L68.0863 64.7389L66.3769 63.0295V64.1961L68.0863 65.9055L68.1033 65.9225V65.9055L69.5003 64.4927C69.4854 64.5447 69.4635 64.5943 69.4353 64.6404V64.6557ZM72.0657 56.0914C70.2578 55.861 69.1885 54.3819 67.3313 54.3819C65.3094 54.3819 64.3884 56.1406 62.1859 56.1406C60.0813 56.1406 58.9974 54.3819 56.9749 54.3819C54.9688 54.3819 54.032 56.1406 51.8453 56.1406C49.7243 56.1406 48.6398 54.3819 46.6179 54.3819C44.6124 54.3819 43.675 56.1406 41.4883 56.1406C39.3844 56.1406 38.2828 54.3819 36.2773 54.3819C34.3375 54.3819 33.4171 55.9759 31.411 56.1248C31.2469 55.0233 31.1648 53.9047 31.1314 52.771C33.3344 52.771 34.2548 51.0281 36.2767 51.0281C38.2822 51.0281 39.3838 52.771 41.4878 52.771C43.6738 52.771 44.6112 51.0281 46.6173 51.0281C48.6392 51.0281 49.7243 52.771 51.8447 52.771C54.0314 52.771 54.9682 51.0281 56.9743 51.0281C58.9962 51.0281 60.0807 52.771 62.1853 52.771C64.3884 52.771 65.3088 51.0281 67.3307 51.0281C69.2705 51.0281 70.3721 52.6555 72.3447 52.771C72.3102 53.8819 72.217 54.9903 72.0657 56.0914ZM72.3612 47.4439L67.5282 40.9508L62.2844 47.9867L57.0575 40.9508L51.8125 47.9867L46.5845 40.9508L41.3406 47.9867L36.1132 40.9508L31.1155 47.6578V28.7858C31.1155 28.7858 39.9102 24.8405 51.6648 24.8405C63.4193 24.8405 72.3612 28.7858 72.3612 28.7858V47.4439Z" fill="black"/>
<path fill-rule="evenodd" clip-rule="evenodd" d="M50.0859 38.6164H42.228V28.9336H44.4803L45.2202 27.2569C45.6639 27.3724 46.4366 27.3888 46.9959 27.3062C47.5545 27.2241 49.3138 26.6977 50.0537 26.7469C50.8099 26.7961 51.5497 27.2563 51.9114 27.8648C52.2731 27.2563 53.013 26.7961 53.7528 26.7469C54.4926 26.6977 56.2671 27.2235 56.827 27.3062C57.3687 27.3882 58.1577 27.3718 58.6015 27.2569L59.3249 28.9336H61.528V38.6164H53.6525L51.8774 39.603L50.0859 38.6164ZM45.6311 35.0656C45.8451 35.2467 46.3381 35.164 46.7819 35.1148C47.653 34.9999 49.0342 34.5227 49.7904 34.5555C50.185 34.5719 50.7929 34.9008 51.1382 35.4267V28.8843C50.7929 28.3585 50.185 28.0132 49.7904 27.9967C49.0342 27.9803 47.653 28.4569 46.7819 28.5554C46.3381 28.6047 45.8615 28.6873 45.6311 28.5068V35.0656ZM58.0587 28.5068C57.8283 28.6873 57.3364 28.6053 56.9079 28.5554C56.0203 28.4569 54.6398 27.9803 53.8829 27.9967C53.5048 28.0132 52.8969 28.3585 52.5352 28.8843V35.4273C52.8969 34.9014 53.5048 34.5725 53.8829 34.5561C54.6398 34.5233 56.0203 34.9999 56.9079 35.1154C57.3358 35.1646 57.8459 35.2473 58.0587 35.0661V28.5068ZM50.875 36.7428L44.2664 36.7264V30.0679H43.4445V37.4656H50.892L51.878 38.1562L52.8811 37.4656H60.3602V30.0679H59.5395V36.7258L52.8811 36.7428L51.878 37.3841L50.875 36.7428Z" fill="black"/>
</svg>
