<svg width="53" height="41" viewBox="0 0 53 41" fill="none" xmlns="http://www.w3.org/2000/svg">
<path d="M4.70523 37.4148C1.64371 34.1397 0 30.4665 0 24.5121C0 14.0343 7.30306 4.64317 17.9233 0L20.5776 4.12527C10.6648 9.52584 8.72682 16.534 7.954 20.9526C9.55016 20.1204 11.6397 19.83 13.6877 20.0216C19.0498 20.5216 23.2765 24.9552 23.2765 30.4665C23.2765 33.2454 22.1804 35.9105 20.2294 37.8755C18.2784 39.8404 15.6323 40.9443 12.8732 40.9443C11.3474 40.9311 9.83939 40.6122 8.43709 40.0062C7.0348 39.4003 5.76621 38.5194 4.70523 37.4148ZM34.4287 37.4148C31.3672 34.1397 29.7235 30.4665 29.7235 24.5121C29.7235 14.0343 37.0265 4.64317 47.6467 0L50.3011 4.12527C40.3883 9.52584 38.4503 16.534 37.6775 20.9526C39.2736 20.1204 41.3632 19.83 43.4111 20.0216C48.7733 20.5216 52.9999 24.9552 52.9999 30.4665C52.9999 33.2454 51.9039 35.9105 49.9529 37.8755C48.0019 39.8404 45.3558 40.9443 42.5967 40.9443C41.0709 40.9311 39.5629 40.6122 38.1606 40.0062C36.7583 39.4003 35.4897 38.5194 34.4287 37.4148Z" fill="black"/>
</svg>
