<svg xmlns="http://www.w3.org/2000/svg" version="1.1" xmlns:xlink="http://www.w3.org/1999/xlink" width="51" height="44"><svg xmlns="http://www.w3.org/2000/svg" version="1.1" xmlns:xlink="http://www.w3.org/1999/xlink" width="51" height="44"><svg width="51" height="44" viewBox="0 0 51 44" fill="none" xmlns="http://www.w3.org/2000/svg">
<path d="M9.14062 34.7388C7.22168 34.7388 5.58105 34.2554 4.21875 33.2886C2.85645 32.3218 1.80908 30.9741 1.07666 29.2456C0.358887 27.5024 0 25.4736 0 23.1592V22.6978C0 20.1636 0.358887 17.9517 1.07666 16.062C1.80908 14.1724 2.85645 12.7002 4.21875 11.6455C5.5957 10.5908 7.229 10.0635 9.11865 10.0635C10.481 10.0635 11.6675 10.3271 12.6782 10.8545C13.7036 11.3672 14.5825 12.1069 15.3149 13.0737V4.06494L11.8213 3.40576V0H15.3149H20.8521V30.2344L24.1479 30.8936V34.2773H16.062L15.6226 31.3989C14.8755 32.4976 13.96 33.3325 12.876 33.9038C11.8066 34.4604 10.5615 34.7388 9.14062 34.7388ZM10.7007 30.3662C11.7554 30.3662 12.6636 30.1392 13.4253 29.6851C14.187 29.2163 14.8169 28.5425 15.3149 27.6636V17.1826C14.8315 16.333 14.2017 15.6665 13.4253 15.1831C12.6636 14.6851 11.77 14.436 10.7446 14.436C9.54346 14.436 8.55469 14.7876 7.77832 15.4907C7.0166 16.1792 6.45264 17.146 6.08643 18.3911C5.72021 19.6216 5.53711 21.0571 5.53711 22.6978V23.1592C5.53711 25.3564 5.93994 27.1069 6.74561 28.4106C7.56592 29.7144 8.88428 30.3662 10.7007 30.3662ZM26.2134 43.418V40.0122L29.4214 39.353V14.5679L25.9277 13.9087V10.5029H34.3872L34.7388 13.3154C35.4712 12.2754 36.3647 11.4771 37.4194 10.9204C38.4741 10.3491 39.7192 10.0635 41.1548 10.0635C43.0884 10.0635 44.7437 10.5908 46.1206 11.6455C47.4976 12.7002 48.5449 14.1724 49.2627 16.062C49.9951 17.9517 50.3613 20.1636 50.3613 22.6978V23.1592C50.3613 25.4736 49.9951 27.5024 49.2627 29.2456C48.5303 30.9741 47.4756 32.3218 46.0986 33.2886C44.7363 34.2554 43.0884 34.7388 41.1548 34.7388C39.7925 34.7388 38.5986 34.5044 37.5732 34.0356C36.5479 33.5522 35.6689 32.8491 34.9365 31.9263V39.353L38.3203 40.0122V43.418H26.2134ZM39.4849 30.4761C41.3013 30.4761 42.6416 29.8096 43.5059 28.4766C44.3848 27.1289 44.8242 25.3564 44.8242 23.1592V22.6978C44.8242 21.0571 44.6265 19.6216 44.231 18.3911C43.8501 17.146 43.2568 16.1792 42.4512 15.4907C41.6602 14.7876 40.6567 14.436 39.4409 14.436C38.4155 14.436 37.522 14.6704 36.7603 15.1392C36.0132 15.5933 35.4053 16.2378 34.9365 17.0728V27.9712C35.4053 28.7769 36.0132 29.3994 36.7603 29.8389C37.5073 30.2637 38.4155 30.4761 39.4849 30.4761Z" fill="black"></path>
</svg></svg><style>@media (prefers-color-scheme: light) { :root { filter: none; } }
@media (prefers-color-scheme: dark) { :root { filter: none; } }
</style></svg>