<svg width="32" height="24" viewBox="0 0 32 24" fill="currentColor" xmlns="http://www.w3.org/2000/svg">
<path d="M-0.139746 3.11C0.0618902 2.22649 0.557565 1.43763 1.2661 0.872617C1.97463 0.307607 2.85402 -6.09889e-05 3.76025 9.06828e-09H27.7603C28.6665 -6.09889e-05 29.5459 0.307607 30.2544 0.872617C30.9629 1.43763 31.4586 2.22649 31.6603 3.11L15.7603 12.828L-0.139746 3.11ZM-0.239746 5.394V19.602L11.3663 12.486L-0.239746 5.394ZM13.2823 13.66L0.142254 21.714C0.466907 22.3986 0.979307 22.9769 1.61982 23.3816C2.26033 23.7863 3.0026 24.0007 3.76025 24H27.7603C28.5178 24.0002 29.2598 23.7852 29.8999 23.3802C30.5401 22.9751 31.052 22.3966 31.3763 21.712L18.2363 13.658L15.7603 15.172L13.2823 13.66ZM20.1543 12.488L31.7603 19.602V5.394L20.1543 12.488Z" fill="currentColor"/>
</svg>
