<svg width="43" height="43" viewBox="0 0 43 43" fill="none" xmlns="http://www.w3.org/2000/svg">
<g clip-path="url(#clip0_254_206)">
<path d="M25.8739 7.83851C26.1171 8.14026 26.2411 8.54751 26.4881 9.36101L31.9021 27.145C29.8688 26.0893 27.6861 25.3504 25.4296 24.9538L21.9051 13.0423C21.8773 12.947 21.8193 12.8634 21.7399 12.804C21.6605 12.7445 21.5639 12.7124 21.4647 12.7125C21.3655 12.7127 21.2691 12.745 21.1898 12.8046C21.1105 12.8642 21.0527 12.948 21.0251 13.0433L17.5429 24.9478C15.2766 25.343 13.0843 26.0831 11.0421 27.1423L16.4816 9.35726C16.7306 8.54476 16.8546 8.13826 17.0976 7.83651C17.3122 7.57072 17.5913 7.36432 17.9084 7.23701C18.2666 7.09326 18.6924 7.09326 19.5421 7.09326H23.4279C24.2784 7.09326 24.7041 7.09326 25.0636 7.23801C25.3806 7.36564 25.6594 7.57238 25.8739 7.83851ZM26.5214 27.991C25.6289 28.7545 23.8474 29.275 21.7956 29.275C19.2781 29.275 17.1669 28.4908 16.6071 27.436C16.4071 28.0405 16.3621 28.732 16.3621 29.1745C16.3621 29.1745 16.2304 31.3433 17.7391 32.852C17.7391 32.6658 17.7757 32.4814 17.847 32.3094C17.9182 32.1373 18.0227 31.981 18.1544 31.8493C18.2861 31.7177 18.4424 31.6133 18.6144 31.542C18.7865 31.4708 18.9709 31.4342 19.1571 31.4343C20.4996 31.4343 20.4989 32.605 20.4979 33.5563V33.6403C20.4979 35.0835 21.3796 36.32 22.6336 36.8415C22.4402 36.4445 22.34 36.0086 22.3406 35.567C22.3406 34.19 23.1481 33.6783 24.0876 33.0825C24.8349 32.609 25.6649 32.0825 26.2361 31.027C26.5446 30.4583 26.7057 29.8215 26.7049 29.1745C26.705 28.7728 26.6431 28.3738 26.5214 27.991Z" fill="black"/>
</g>
<defs>
<clipPath id="clip0_254_206">
<rect width="39.97" height="32" fill="white" transform="translate(1.51294 5.50098)"/>
</clipPath>
</defs>
</svg>
