<svg width="43" height="43" viewBox="0 0 43 43" fill="none" xmlns="http://www.w3.org/2000/svg">
<path fill-rule="evenodd" clip-rule="evenodd" d="M15.5284 16.872C14.9207 16.872 14.3189 16.9917 13.7574 17.2243C13.1959 17.4569 12.6858 17.7978 12.256 18.2275C11.8263 18.6573 11.4854 19.1674 11.2528 19.7289C11.0203 20.2904 10.9006 20.8922 10.9006 21.4999C10.9006 22.1077 11.0203 22.7094 11.2528 23.2709C11.4854 23.8324 11.8263 24.3426 12.256 24.7723C12.6858 25.2021 13.1959 25.5429 13.7574 25.7755C14.3189 26.0081 14.9207 26.1278 15.5284 26.1278H20.1563V16.872H15.5284ZM20.1563 14.1845H15.5284C14.3008 14.1845 13.1235 13.6969 12.2554 12.8288C11.3873 11.9607 10.8997 10.7834 10.8997 9.55577C10.8997 8.32815 11.3873 7.1508 12.2554 6.28274C13.1235 5.41467 14.3008 4.927 15.5284 4.927H20.1563V14.1845ZM22.8438 4.927V14.1845H27.4717C28.6835 14.1607 29.8377 13.6625 30.6863 12.7971C31.5349 11.9316 32.0103 10.7679 32.0103 9.55577C32.0103 8.34368 31.5349 7.17993 30.6863 6.31446C29.8377 5.449 28.6835 4.95085 27.4717 4.927H22.8438ZM27.4717 16.8703C26.2569 16.8701 25.0908 17.3476 24.225 18.1997C23.3592 19.0517 22.8631 20.2101 22.8438 21.4247V21.5734C22.8586 22.4853 23.1426 23.3726 23.6601 24.1237C24.1775 24.8747 24.9054 25.4562 25.7522 25.795C26.599 26.1337 27.5271 26.2147 28.4198 26.0277C29.3125 25.8407 30.13 25.3941 30.7698 24.744C31.4095 24.0939 31.8428 23.2693 32.0154 22.3737C32.1879 21.4781 32.092 20.5514 31.7396 19.7102C31.3872 18.8689 30.7941 18.1505 30.0348 17.6453C29.2755 17.14 28.3838 16.8704 27.4717 16.8703ZM15.5284 28.8153C14.6127 28.8149 13.7174 29.0862 12.9558 29.5947C12.1943 30.1032 11.6006 30.8261 11.2499 31.672C10.8992 32.518 10.8073 33.4489 10.9857 34.3471C11.1641 35.2453 11.6049 36.0703 12.2523 36.718C12.8997 37.3656 13.7247 37.8068 14.6228 37.9855C15.5209 38.1643 16.4519 38.0727 17.2979 37.7224C18.144 37.372 18.8672 36.7786 19.3759 36.0173C19.8847 35.2559 20.1563 34.3607 20.1563 33.445V28.8153H15.5284Z" fill="black"/>
</svg>
