<svg width="43" height="43" viewBox="0 0 43 43" fill="none" xmlns="http://www.w3.org/2000/svg">
<g clip-path="url(#clip0_254_183)">
<path d="M7.67673 27.5247L5.58627 28.2883L5.47388 34.5074L12.7106 31.8637C10.2286 31.0301 8.416 29.5631 7.67673 27.5247Z" fill="black"/>
<path d="M8.77084 20.9468L1.51746 23.5965L5.5863 28.2882L7.67675 27.5246C6.93966 25.492 7.39422 23.1944 8.77084 20.9468Z" fill="black"/>
<path d="M20.9769 11.973C11.7405 15.3472 5.78583 22.3098 7.6768 27.5245L41.1249 15.3054C39.234 10.0906 30.2134 8.59865 20.9769 11.9727" fill="black"/>
<path d="M27.8249 30.8572C37.0612 27.483 43.0272 20.5512 41.1249 15.3057L7.67676 27.5247C9.57896 32.7702 18.5884 34.2312 27.8249 30.8572Z" fill="black"/>
<path d="M40.9609 15.6306C41.148 16.3773 40.9896 17.228 40.4922 18.156C39.9404 19.1852 38.9855 20.2843 37.6904 21.3894C35.1013 23.5987 31.196 25.7955 26.5977 27.4753C22.0579 29.1338 17.7139 29.9704 14.334 29.9705C12.5996 29.9705 11.1332 29.7498 10.0283 29.3171C9.03032 28.9263 8.34925 28.3713 8.00977 27.6687L40.9609 15.6306Z" fill="#E2E2E2" stroke="black" stroke-width="0.5"/>
<path d="M34.4678 12.8596C36.2021 12.8596 37.6686 13.0803 38.7734 13.5129C39.7709 13.9036 40.4514 14.4584 40.791 15.1604L7.83887 27.1985C7.65236 26.4521 7.81148 25.6015 8.30859 24.6741C8.86033 23.6448 9.81607 22.5459 11.1113 21.4407C13.7004 19.2315 17.6058 17.0346 22.2041 15.3547C26.7438 13.6965 31.0877 12.8596 34.4678 12.8596Z" fill="#E2E2E2" stroke="black" stroke-width="0.5"/>
<path d="M32.6207 34.8367H32.6204C31.6363 34.8367 30.1845 33.9477 28.3052 32.1946C26.0817 30.1205 23.5349 27.0827 21.1338 23.6406C18.7325 20.1987 16.7594 16.7576 15.5779 13.9513C14.2906 10.8929 14.107 9.0124 15.0324 8.3621C15.2353 8.21958 15.4799 8.14746 15.7592 8.14746C16.5119 8.14746 17.9784 8.70785 20.6903 11.3776L20.7496 11.436L20.7415 11.5189C20.723 11.7105 20.706 11.9022 20.6906 12.0941L20.6605 12.4712L20.3943 12.2032C17.4725 9.2595 16.1863 8.94169 15.7688 8.94169C15.6497 8.94169 15.555 8.96588 15.4871 9.01365C15.0856 9.29571 15.0599 10.6769 16.3079 13.6416C17.4683 16.398 19.4126 19.7872 21.7828 23.1843C24.1532 26.582 26.6609 29.575 28.8447 31.612C31.1992 33.8085 32.2604 34.0456 32.6072 34.0456C32.727 34.0456 32.8244 34.02 32.8965 33.9691C33.32 33.6718 33.3205 32.1921 31.9287 29.001L31.8647 28.8546L32.0047 28.7781C32.1446 28.7015 32.2799 28.6261 32.4067 28.5539L32.5743 28.4587L32.6514 28.6356C33.6383 30.8967 34.5608 33.7704 33.3512 34.6208C33.1473 34.764 32.9016 34.8367 32.6207 34.8367ZM32.6204 34.4878H32.6207L32.6205 34.6622L32.6204 34.4878Z" fill="black"/>
<path d="M28.049 30.7618L28.035 30.9355C27.8014 33.8249 27.1866 37.2987 25.5834 37.4392C25.5512 37.4421 25.5181 37.4435 25.4843 37.4435C24.3954 37.4435 23.365 35.8832 22.4222 32.8059C21.5299 29.8945 20.8378 25.9855 20.4728 21.799C20.1079 17.6132 20.1133 13.6429 20.4881 10.6196C20.8969 7.32498 21.6746 5.60431 22.7999 5.50566C22.8333 5.50254 22.8678 5.50098 22.9018 5.50098C23.6919 5.50098 24.8826 6.39542 26.1014 10.5623L25.3056 10.7159C24.8986 9.32349 24.455 8.19101 24.0147 7.41286C23.6074 6.69309 23.2114 6.29676 22.8997 6.29676C22.8893 6.29676 22.879 6.29713 22.8689 6.29785C22.3811 6.34078 21.6707 7.524 21.2745 10.7178C20.9065 13.687 20.9019 17.5978 21.262 21.7297C21.6225 25.8622 22.3034 29.7128 23.1795 32.5722C23.5718 33.8527 24.0022 34.908 24.4241 35.6242C24.8131 36.2845 25.1896 36.6482 25.484 36.6482C25.4942 36.6482 25.5044 36.6478 25.5145 36.647C25.9812 36.6061 26.8608 35.3748 27.2309 31.0424L28.049 30.7618Z" fill="black"/>
</g>
<defs>
<clipPath id="clip0_254_183">
<rect width="39.97" height="32" fill="white" transform="translate(1.51294 5.50098)"/>
</clipPath>
</defs>
</svg>
