<svg width="43" height="43" viewBox="0 0 43 43" fill="none" xmlns="http://www.w3.org/2000/svg">
<g clip-path="url(#clip0_254_229)">
<g clip-path="url(#clip1_254_229)">
<path d="M21.4722 19.1177C23.0052 19.1177 24.2554 20.3842 24.2554 21.9673C24.2554 23.475 23.0052 24.7566 21.4722 24.7566C19.9391 24.7566 18.6889 23.475 18.6889 21.9673C18.6889 20.3842 19.9391 19.1177 21.4722 19.1177ZM14.581 34.0292C15.5187 34.6022 17.5726 33.7277 19.9391 31.4661C19.1652 30.5765 18.4061 29.6115 17.6917 28.6013C16.4924 28.4842 15.3 28.303 14.1196 28.0586C13.3605 31.2851 13.6433 33.5015 14.581 34.0292ZM15.6377 25.3748L15.2061 24.6058C15.0424 25.0431 14.8787 25.4803 14.7745 25.9025C15.1764 25.993 15.6229 26.0683 16.0843 26.1437L15.6377 25.3748ZM25.3717 24.2289L26.5773 21.9673L25.3717 19.7057C24.9252 18.9066 24.4489 18.1979 24.0173 17.4893C23.2136 17.4441 22.3652 17.4441 21.4722 17.4441C20.5791 17.4441 19.7308 17.4441 18.9271 17.4893C18.4954 18.1979 18.0191 18.9066 17.5726 19.7057L16.3671 21.9673L17.5726 24.2289C18.0191 25.028 18.4954 25.7366 18.9271 26.4453C19.7308 26.4905 20.5791 26.4905 21.4722 26.4905C22.3652 26.4905 23.2136 26.4905 24.0173 26.4453C24.4489 25.7366 24.9252 25.028 25.3717 24.2289ZM21.4722 14.0969C21.1894 14.4286 20.8917 14.7754 20.594 15.1824H22.3503C22.0526 14.7754 21.755 14.4286 21.4722 14.0969ZM21.4722 29.8377C21.755 29.506 22.0526 29.1592 22.3503 28.7521H20.594C20.8917 29.1592 21.1894 29.506 21.4722 29.8377ZM28.3484 9.90535C27.4257 9.33241 25.3717 10.2069 23.0052 12.4685C23.7791 13.3581 24.5382 14.323 25.2526 15.3332C26.4731 15.4538 27.6787 15.6348 28.8247 15.876C29.5838 12.6494 29.301 10.4331 28.3484 9.90535ZM27.3066 18.5598L27.7382 19.3287C27.9019 18.8915 28.0657 18.4542 28.1698 18.0321C27.768 17.9416 27.3215 17.8662 26.8601 17.7908L27.3066 18.5598ZM29.4647 7.93021C31.6526 9.19671 31.8908 12.5288 30.968 16.4188C34.7484 17.5496 37.4722 19.4192 37.4722 21.9673C37.4722 24.5154 34.7484 26.385 30.968 27.5158C31.8908 31.4057 31.6526 34.7379 29.4647 36.0044C27.2917 37.2709 24.3298 35.8234 21.4722 33.0643C18.6145 35.8234 15.6526 37.2709 13.4647 36.0044C11.2917 34.7379 11.0536 31.4057 11.9764 27.5158C8.19589 26.385 5.47217 24.5154 5.47217 21.9673C5.47217 19.4192 8.19589 17.5496 11.9764 16.4188C11.0536 12.5288 11.2917 9.19671 13.4647 7.93021C15.6526 6.66371 18.6145 8.11114 21.4722 10.8703C24.3298 8.11114 27.2917 6.66371 29.4647 7.93021ZM29.0331 21.9673C29.5391 23.0981 29.9857 24.2289 30.3577 25.3748C33.4833 24.4249 35.2396 23.0679 35.2396 21.9673C35.2396 20.8666 33.4833 19.5097 30.3577 18.5598C29.9857 19.7057 29.5391 20.8365 29.0331 21.9673ZM13.9112 21.9673C13.4052 20.8365 12.9587 19.7057 12.5866 18.5598C9.46101 19.5097 7.70473 20.8666 7.70473 21.9673C7.70473 23.0679 9.46101 24.4249 12.5866 25.3748C12.9587 24.2289 13.4052 23.0981 13.9112 21.9673ZM27.3066 25.3748L26.8601 26.1437C27.3215 26.0683 27.768 25.993 28.1698 25.9025C28.0657 25.4803 27.9019 25.0431 27.7382 24.6058L27.3066 25.3748ZM23.0052 31.4661C25.3717 33.7277 27.4257 34.6022 28.3484 34.0292C29.301 33.5015 29.5838 31.2851 28.8247 28.0586C27.6787 28.2998 26.4731 28.4807 25.2526 28.6013C24.5382 29.6115 23.7791 30.5765 23.0052 31.4661ZM15.6377 18.5598L16.0843 17.7908C15.6229 17.8662 15.1764 17.9416 14.7745 18.0321C14.8787 18.4542 15.0424 18.8915 15.2061 19.3287L15.6377 18.5598ZM19.9391 12.4685C17.5726 10.2069 15.5187 9.33241 14.581 9.90535C13.6433 10.4331 13.3605 12.6494 14.1196 15.876C15.3 15.6315 16.4924 15.4503 17.6917 15.3332C18.4061 14.323 19.1652 13.3581 19.9391 12.4685Z" fill="black"/>
</g>
</g>
<defs>
<clipPath id="clip0_254_229">
<rect width="39.97" height="32" fill="white" transform="translate(1.51294 5.50098)"/>
</clipPath>
<clipPath id="clip1_254_229">
<rect width="32" height="32" fill="white" transform="translate(5.49792 5.47217)"/>
</clipPath>
</defs>
</svg>
